<svg width="24" height="24" viewBox="0 0 24 24" fill="none" xmlns="http://www.w3.org/2000/svg">
<path d="M12.3102 5.04675C8.57559 5.04675 5.53723 8.08511 5.53723 11.8197C5.53723 13.35 6.03849 14.795 6.98688 15.9981C7.1686 16.2288 7.36434 16.4559 7.55353 16.6756C8.11854 17.3312 8.65208 17.9505 8.842 18.647C8.84609 18.662 8.88184 18.8083 8.87656 19.3062L8.87565 19.3781C8.86992 19.7823 8.86228 20.3357 9.27149 20.7507C9.55172 21.035 9.94447 21.1732 10.4725 21.1732H14.1354C14.7055 21.1732 15.1154 21.0337 15.3884 20.7467C15.7578 20.3586 15.733 19.8573 15.7166 19.5255C15.7137 19.4668 15.7106 19.4076 15.7098 19.3486C15.7039 18.8502 15.7412 18.7097 15.7428 18.7038C15.9357 18.0073 16.5607 17.2729 17.1123 16.625C17.2963 16.4088 17.4701 16.2046 17.632 15.9993C18.5808 14.796 19.0822 13.3507 19.0822 11.8198C19.0823 8.0852 16.0444 5.04675 12.3102 5.04675ZM16.5607 15.1544C16.4146 15.3396 16.2488 15.5344 16.0734 15.7406C15.4303 16.4962 14.7014 17.3525 14.4281 18.3394C14.3891 18.48 14.3382 18.7392 14.3458 19.3647C14.3467 19.4407 14.3502 19.5171 14.3541 19.5928C14.357 19.6525 14.3609 19.7313 14.3605 19.7937C14.3125 19.8015 14.24 19.8088 14.1354 19.8088H10.4725C10.3564 19.8088 10.2886 19.7965 10.2537 19.7872C10.2357 19.6984 10.2383 19.5137 10.2399 19.3973L10.241 19.3205C10.2475 18.6912 10.1971 18.4302 10.1585 18.2884C9.88744 17.2937 9.19663 16.4921 8.58723 15.7849C8.39932 15.5668 8.22168 15.3607 8.05851 15.1535C7.30176 14.1933 6.90174 13.0404 6.90174 11.8196C6.90174 8.83731 9.32806 6.41099 12.3104 6.41099C15.2922 6.41099 17.7181 8.83731 17.7181 11.8196C17.718 13.0411 17.3178 14.1943 16.5607 15.1544Z" fill="black"/>
<path d="M13.9943 19.8499H10.6252C9.89806 19.8499 9.3064 20.4416 9.3064 21.1688V22.1799C9.3064 22.9071 9.89806 23.4988 10.6252 23.4988H13.9943C14.7215 23.4988 15.3132 22.9071 15.3132 22.1799V21.1688C15.3132 20.4416 14.7215 19.8499 13.9943 19.8499ZM13.9488 22.1345H10.6707V21.2143H13.9488V22.1345Z" fill="black"/>
<path d="M12.3097 4.16384C12.6866 4.16384 12.9919 3.8585 12.9919 3.48168V0.682164C12.9919 0.305337 12.6866 0 12.3097 0C11.9329 0 11.6276 0.305337 11.6276 0.682164V3.48168C11.6276 3.8585 11.933 4.16384 12.3097 4.16384Z" fill="black"/>
<path d="M12.3007 18.6956C12.6775 18.6956 12.9829 18.3903 12.9829 18.0135V15.214C12.9829 14.8371 12.6775 14.5318 12.3007 14.5318C11.9239 14.5318 11.6185 14.8371 11.6185 15.214V18.0135C11.6185 18.3903 11.924 18.6956 12.3007 18.6956Z" fill="black"/>
<path d="M21.2845 3.14689C21.0245 2.87448 20.5927 2.86439 20.32 3.12434L18.2489 5.10079C17.9763 5.36083 17.9663 5.79269 18.2264 6.06528C18.3604 6.20572 18.54 6.27648 18.72 6.27648C18.8892 6.27648 19.0588 6.2139 19.1909 6.08784L21.2619 4.11129C21.5345 3.85125 21.5445 3.41939 21.2845 3.14689Z" fill="black"/>
<path d="M23.3179 9.96863C23.3175 9.96863 23.3172 9.96863 23.3168 9.96863L20.6508 9.9729C20.274 9.97354 19.9691 10.2794 19.9697 10.6562C19.9704 11.0326 20.2756 11.3372 20.6519 11.3372C20.6523 11.3372 20.6526 11.3372 20.653 11.3372L23.319 11.333C23.6958 11.3323 24.0007 11.0264 24 10.6497C23.9995 10.2732 23.6942 9.96863 23.3179 9.96863Z" fill="black"/>
<path d="M6.04667 5.88334C6.30671 5.61084 6.29671 5.17908 6.02411 4.91885L3.95306 2.94239C3.68074 2.68244 3.24889 2.69236 2.98857 2.96495C2.72853 3.23745 2.73854 3.66922 3.01113 3.92944L5.08218 5.90599C5.21425 6.03205 5.3837 6.09463 5.55306 6.09463C5.73297 6.09454 5.9126 6.02378 6.04667 5.88334Z" fill="black"/>
<path d="M3.34915 9.9729L0.683257 9.96863C0.682893 9.96863 0.682529 9.96863 0.682165 9.96863C0.305883 9.96863 0.000637682 10.2734 9.95087e-07 10.6497C-0.000635692 11.0264 0.304337 11.3323 0.681074 11.333L3.34697 11.3372C3.34734 11.3372 3.3477 11.3372 3.34806 11.3372C3.72435 11.3372 4.02959 11.0324 4.03023 10.6562C4.03096 10.2794 3.72598 9.97345 3.34915 9.9729Z" fill="black"/>
</svg>
