<svg width="24" height="18" viewBox="0 0 24 18" fill="none" xmlns="http://www.w3.org/2000/svg">
<path d="M9.53846 9.23077C10.4513 9.23077 11.3436 8.96013 12.1026 8.45293C12.8617 7.94585 13.4532 7.22499 13.8025 6.38161C14.1519 5.53827 14.2432 4.61027 14.0651 3.71497C13.887 2.81967 13.4475 1.99729 12.802 1.35182C12.1565 0.70634 11.3341 0.266771 10.4389 0.0886909C9.54362 -0.0894015 8.61562 0.00199534 7.77218 0.351325C6.92886 0.700654 6.20799 1.29222 5.70092 2.05121C5.19372 2.81022 4.92307 3.70255 4.92307 4.61539C4.92307 5.83946 5.40935 7.01342 6.27483 7.87902C7.14043 8.74449 8.31433 9.23077 9.53846 9.23077ZM9.53846 1.84616C10.0861 1.84616 10.6215 2.00857 11.0769 2.31285C11.5323 2.61715 11.8873 3.04964 12.0969 3.55564C12.3065 4.06166 12.3613 4.61846 12.2545 5.15563C12.1476 5.69281 11.8839 6.18624 11.4966 6.57354C11.1093 6.96086 10.6159 7.22462 10.0788 7.33145C9.54153 7.43828 8.98473 7.38339 8.47876 7.17379C7.97267 6.96419 7.54018 6.60923 7.23593 6.15388C6.93169 5.69849 6.76922 5.16309 6.76922 4.61539C6.76922 3.88094 7.06104 3.17658 7.5803 2.65724C8.09969 2.13791 8.80406 1.84616 9.53846 1.84616Z" fill="black"/>
<path d="M0.923057 17.8461C1.16687 17.8429 1.39986 17.7447 1.57229 17.5723C1.74472 17.3999 1.84293 17.1669 1.84613 16.9231C1.84613 14.5231 3.15075 12.9231 9.53844 12.9231C15.9261 12.9231 17.2308 14.5231 17.2308 16.9231C17.2308 17.1679 17.328 17.4027 17.5011 17.5757C17.6742 17.7489 17.909 17.8461 18.1538 17.8461C18.3986 17.8461 18.6334 17.7489 18.8065 17.5757C18.9796 17.4027 19.0769 17.1679 19.0769 16.9231C19.0769 11.0769 12.3938 11.0769 9.53844 11.0769C6.68306 11.0769 -1.94907e-05 11.0769 -1.94907e-05 16.9231C0.00318051 17.1669 0.101396 17.3999 0.273826 17.5723C0.446257 17.7447 0.679242 17.8429 0.923057 17.8461Z" fill="black"/>
<path d="M16.5292 10.2277H16.923C17.9023 10.133 18.8038 9.65329 19.4293 8.89391C20.0548 8.13452 20.3531 7.15778 20.2584 6.17847C20.1637 5.19921 19.684 4.29767 18.9246 3.67216C18.1652 3.04666 17.1884 2.74843 16.2092 2.84309C16.0836 2.84849 15.9605 2.87947 15.8473 2.93414C15.7341 2.9888 15.6333 3.066 15.5511 3.161C15.4688 3.256 15.4068 3.3668 15.3688 3.48662C15.3309 3.60644 15.3178 3.73274 15.3304 3.85778C15.343 3.98283 15.381 4.10399 15.442 4.21383C15.5031 4.32368 15.5859 4.41989 15.6855 4.49659C15.7851 4.57328 15.8993 4.62884 16.021 4.65985C16.1428 4.69087 16.2697 4.69668 16.3938 4.67693C16.634 4.65298 16.8767 4.67769 17.1072 4.74959C17.3377 4.82149 17.5513 4.9391 17.7353 5.0954C17.9223 5.24618 18.0773 5.43265 18.1914 5.64396C18.3055 5.85527 18.3764 6.08717 18.4 6.32616C18.4254 6.56812 18.4024 6.8128 18.3324 7.04578C18.2624 7.27889 18.1466 7.49563 17.992 7.68344C17.8374 7.87138 17.6469 8.02658 17.4317 8.14006C17.2164 8.25354 16.9808 8.32308 16.7384 8.34461C16.3377 8.37895 15.9366 8.28406 15.5938 8.07385C15.3849 7.94498 15.1333 7.90424 14.8944 7.96086C14.6555 8.01735 14.4489 8.16652 14.3199 8.37538C14.191 8.58437 14.1503 8.83594 14.2068 9.07483C14.2634 9.31372 14.4126 9.52037 14.6215 9.64923C15.1923 10.0133 15.8523 10.2134 16.5292 10.2277Z" fill="black"/>
<path d="M23.0769 16.9231C23.3208 16.9199 23.5537 16.8217 23.7261 16.6492C23.8985 16.4768 23.9968 16.2438 24 16C24 12.6769 23.1138 10.4615 18.7692 10.4615C18.5244 10.4615 18.2896 10.5588 18.1165 10.7319C17.9434 10.905 17.8462 11.1398 17.8462 11.3846C17.8462 11.6294 17.9434 11.8643 18.1165 12.0373C18.2896 12.2105 18.5244 12.3077 18.7692 12.3077C21.6615 12.3077 22.1538 13.2308 22.1538 16C22.157 16.2438 22.2553 16.4768 22.4277 16.6492C22.6002 16.8217 22.8331 16.9199 23.0769 16.9231Z" fill="black"/>
</svg>
